<svg xmlns="http://www.w3.org/2000/svg" viewBox="0 0 64 64">
  <rect width="64" height="64" rx="18" fill="#08131f" />
  <path
    d="M16 14h19c9.9 0 16.5 6.1 16.5 15.1 0 9.4-6.9 15.3-17.5 15.3H28v11.6H16V14Zm12 10.1v10.2h6.7c3.4 0 5.3-1.8 5.3-5.1 0-3.2-1.9-5.1-5.3-5.1H28Z"
    fill="#0a5cb8"
  />
  <path
    d="M38.7 48.7c0-4.3 3.3-7.1 8.2-7.1h3.1v-1c0-2.4-1.6-3.8-4.6-3.8-2.3 0-4.2.8-5.8 2.5l-6.4-3.8c2.8-4 7.3-6.1 13.2-6.1 8.5 0 14.1 4.1 14.1 11.3V56h-8.7v-2.8c-1.8 2.2-4.5 3.2-8 3.2-4.1 0-7.1-2.9-7.1-7.7Zm11.3.4c1.9 0 3.5-1 4.2-2.6v-1.6h-2.1c-2.3 0-3.5.8-3.5 2.3 0 1.2.6 1.9 1.4 1.9Z"
    fill="#e28d28"
  />
</svg>
